<svg xmlns="http://www.w3.org/2000/svg" width="64" height="64" fill="none">
  <circle cx="32" cy="32" r="32" fill="black" />
  <path
    fill="white"
    d="M17.424 46.16c-.7893 0-1.3547-.1707-1.696-.512-.3413-.3627-.512-1.0347-.512-2.016 0-.6613.064-1.504.192-2.528.1493-1.0453.384-2.4747.704-4.288.5547-3.3493.992-6.2507 1.312-8.704.192-1.536.288-2.816.288-3.84 0-.96-.352-1.44-1.056-1.44-.5547 0-1.2267.288-2.016.864-.768.5547-1.6213 1.4507-2.56 2.688-.2987.4053-.6293.608-.992.608-.2987 0-.5653-.1387-.8-.416-.2133-.2987-.32-.6293-.32-.992 0-.3413.064-.6827.192-1.024.1493-.3627.384-.768.704-1.216 1.024-1.4293 2.1653-2.528 3.424-3.296 1.2587-.7893 2.5173-1.184 3.776-1.184 1.1733 0 2.0693.3733 2.688 1.12.64.7467.96 1.8347.96 3.264 0 .576-.0533 1.2587-.16 2.048-.1067.768-.2027 1.3973-.288 1.888-.0853.4907-.1493.832-.192 1.024 1.216-3.4773 2.5813-5.8987 4.096-7.264 1.5147-1.3867 3.1787-2.08 4.992-2.08 1.3867 0 2.4747.4907 3.264 1.472.8107.9813 1.216 2.368 1.216 4.16 0 .704-.096 1.5787-.288 2.624 1.0667-2.944 2.3147-5.056 3.744-6.336 1.4293-1.28 3.072-1.92 4.928-1.92 1.4933 0 2.6347.48 3.424 1.44.8107.96 1.216 2.304 1.216 4.032 0 .9387-.1387 2.08-.416 3.424l-1.952 9.152c-.2133 1.0667-.32 1.984-.32 2.752 0 .896.2027 1.568.608 2.016.4267.448 1.0133.672 1.76.672.704 0 1.3867-.2347 2.048-.704.6827-.4693 1.4827-1.248 2.4-2.336.256-.2987.544-.448.864-.448.2773 0 .4907.128.64.384.1707.256.256.608.256 1.056 0 .832-.2027 1.4933-.608 1.984-1.1093 1.344-2.208 2.3253-3.296 2.944-1.088.6187-2.2293.928-3.424.928-1.8133 0-3.232-.5333-4.256-1.6-1.024-1.088-1.536-2.5387-1.536-4.352 0-1.2587.256-3.0827.768-5.472l1.28-5.856c.0427-.192.1173-.5333.224-1.024s.192-.9493.256-1.376c.064-.448.096-.8853.096-1.312 0-.7467-.1493-1.3013-.448-1.664-.2773-.384-.6827-.576-1.216-.576-1.0027 0-2.0587.6507-3.168 1.952-1.088 1.28-2.1333 3.4133-3.136 6.4-.9813 2.9867-1.7813 6.8693-2.4 11.648-.1493 1.28-.416 2.144-.8 2.592-.3627.4267-.96.64-1.792.64-.7253 0-1.2587-.1707-1.6-.512-.32-.3413-.48-.9813-.48-1.92 0-.8747.1173-2.016.352-3.424.2347-1.4293.5333-3.104.896-5.024.9813-5.1627 1.472-8.4907 1.472-9.984 0-.8107-.16-1.408-.48-1.792-.2987-.384-.7573-.576-1.376-.576-1.0453 0-2.1227.5973-3.232 1.792-1.1093 1.1733-2.1973 3.2747-3.264 6.304-1.0453 3.008-1.92 7.0827-2.624 12.224-.1493 1.088-.3733 1.8453-.672 2.272-.2773.4267-.832.64-1.664.64Z"
  />
  <style>
    path {
      fill: #fff;
    }
    circle {
      fill: black;
    }
    @media (prefers-color-scheme: dark) {
      path {
        fill: #000;
      }
      circle {
        fill: white;
      }
    }
  </style>
</svg>
